<!DOCTYPE svg PUBLIC "-//W3C//DTD SVG 1.1//EN" "http://www.w3.org/Graphics/SVG/1.1/DTD/svg11.dtd">
<!-- Uploaded to: SVG Repo, www.svgrepo.com, Transformed by: SVG Repo Mixer Tools -->
<svg fill="#202124" width="800px" height="800px" viewBox="-4 0 32 32" version="1.1" xmlns="http://www.w3.org/2000/svg">
<g id="SVGRepo_bgCarrier" stroke-width="0"/>
<g id="SVGRepo_tracerCarrier" stroke-linecap="round" stroke-linejoin="round"/>
<g id="SVGRepo_iconCarrier"> <title>keyboard</title> <path d="M0.938 8.313h22.125c0.5 0 0.938 0.438 0.938 0.938v13.5c0 0.5-0.438 0.938-0.938 0.938h-22.125c-0.5 0-0.938-0.438-0.938-0.938v-13.5c0-0.5 0.438-0.938 0.938-0.938zM1.594 22.063h20.813v-12.156h-20.813v12.156zM3.844 11.188h1.906v1.938h-1.906v-1.938zM7.469 11.188h1.906v1.938h-1.906v-1.938zM11.031 11.188h1.938v1.938h-1.938v-1.938zM14.656 11.188h1.875v1.938h-1.875v-1.938zM18.25 11.188h1.906v1.938h-1.906v-1.938zM5.656 15.031h1.938v1.938h-1.938v-1.938zM9.281 16.969v-1.938h1.906v1.938h-1.906zM12.875 16.969v-1.938h1.906v1.938h-1.906zM18.406 16.969h-1.938v-1.938h1.938v1.938zM16.531 20.781h-9.063v-1.906h9.063v1.906z"/> </g>
</svg>